<svg xmlns="http://www.w3.org/2000/svg" viewBox="0 0 1560 660" width="1560" height="660" font-family="Inter, Segoe UI, Arial, sans-serif">

  <!-- ═══════════════════════════════════════════════════════════════════════
       DDN INFINIA × NVIDIA VSS — Search Architecture
       Based on NVIDIA VSS + AIDP blueprint  |  Adapted for DDN INFINIA
       ═══════════════════════════════════════════════════════════════════════ -->

  <!-- Background -->
  <rect width="1560" height="660" fill="#1a1a2e" rx="12"/>

  <!-- ── Title bar ───────────────────────────────────────────────────────── -->
  <rect x="20" y="16" width="1520" height="52" rx="8" fill="#12122a"/>
  <text x="40" y="48" fill="#76b900" font-size="18" font-weight="700" letter-spacing="1">DDN INFINIA × NVIDIA VSS</text>
  <text x="330" y="48" fill="#6b7280" font-size="18" font-weight="400"> — Search Architecture</text>
  <text x="1520" y="48" fill="#4b5563" font-size="11" text-anchor="end">Adapted from NVIDIA VSS + AIDP Blueprint</text>

  <!-- ── SECTION LABELS ──────────────────────────────────────────────────── -->
  <!-- Ingestion section label -->
  <rect x="20" y="84" width="760" height="28" rx="5" fill="#f59e0b15"/>
  <text x="400" y="102" fill="#f59e0b" font-size="12" font-weight="700" letter-spacing="2" text-anchor="middle">① INGESTION PIPELINE</text>

  <!-- Retrieval section label -->
  <rect x="790" y="84" width="750" height="28" rx="5" fill="#3b82f615"/>
  <text x="1165" y="102" fill="#60a5fa" font-size="12" font-weight="700" letter-spacing="2" text-anchor="middle">② RETRIEVAL PIPELINE</text>

  <!-- ══════════════════════════════════════════════════════════════════════
       INGESTION PIPELINE  (left side, top-to-bottom flow)
       ══════════════════════════════════════════════════════════════════════ -->

  <!-- Column X positions for ingestion: 55, 195, 335, 475, 615 (node centres) -->

  <!-- ── Stage 0: Video Source ─────────────────────────────────────────── -->
  <g transform="translate(55,140)">
    <!-- Node box -->
    <rect x="-55" y="0" width="110" height="86" rx="10" fill="#1e1e3a" stroke="#f59e0b" stroke-width="1.5"/>
    <!-- Icon: camera/film -->
    <rect x="-22" y="10" width="44" height="30" rx="5" fill="none" stroke="#f59e0b" stroke-width="1.8"/>
    <polygon points="22,17 34,12 34,34 22,29" fill="#f59e0b" opacity="0.7"/>
    <circle cx="0" cy="25" r="7" fill="none" stroke="#f59e0b" stroke-width="1.5"/>
    <!-- Labels -->
    <text x="0" y="56" fill="#f59e0b" font-size="9.5" font-weight="700" text-anchor="middle">VIDEO SOURCE</text>
    <text x="0" y="68" fill="#9ca3af" font-size="8" text-anchor="middle">MP4 · H.264 · RTSP</text>
    <text x="0" y="79" fill="#6b7280" font-size="7" text-anchor="middle">FastAPI S3 PUT</text>
  </g>

  <!-- Arrow 0→1 -->
  <line x1="113" y1="183" x2="138" y2="183" stroke="#f59e0b" stroke-width="1.5" marker-end="url(#arrowAmber)"/>

  <!-- ── Stage 1: Demux + Chunker ──────────────────────────────────────── -->
  <g transform="translate(195,140)">
    <rect x="-55" y="0" width="110" height="86" rx="10" fill="#1e1e3a" stroke="#f59e0b" stroke-width="1.5"/>
    <!-- Scissors icon -->
    <circle cx="-12" cy="18" r="7" fill="none" stroke="#f59e0b" stroke-width="1.5"/>
    <circle cx="-12" cy="36" r="7" fill="none" stroke="#f59e0b" stroke-width="1.5"/>
    <line x1="-5" y1="14" x2="18" y2="40" stroke="#f59e0b" stroke-width="1.5"/>
    <line x1="-5" y1="40" x2="18" y2="14" stroke="#f59e0b" stroke-width="1.5"/>
    <text x="0" y="56" fill="#f59e0b" font-size="9.5" font-weight="700" text-anchor="middle">DEMUX + CHUNKER</text>
    <text x="0" y="68" fill="#9ca3af" font-size="8" text-anchor="middle">GOP-aligned segments</text>
    <text x="0" y="79" fill="#9ca3af" font-size="7.5" text-anchor="middle">FFmpeg · PyAV</text>
  </g>

  <!-- Arrow 1→2 -->
  <line x1="253" y1="183" x2="278" y2="183" stroke="#f59e0b" stroke-width="1.5" marker-end="url(#arrowAmber)"/>

  <!-- ── Stage 2: Keyframe Selector ────────────────────────────────────── -->
  <g transform="translate(335,140)">
    <rect x="-55" y="0" width="110" height="86" rx="10" fill="#1e1e3a" stroke="#f59e0b" stroke-width="1.5"/>
    <!-- NVIDIA badge -->
    <rect x="32" y="-8" width="22" height="14" rx="3" fill="#76b900"/>
    <text x="43" y="1" fill="white" font-size="7" font-weight="900" text-anchor="middle">NVIDIA</text>
    <!-- Film strip icon -->
    <rect x="-22" y="8" width="44" height="28" rx="3" fill="none" stroke="#f59e0b" stroke-width="1.5"/>
    <rect x="-22" y="8" width="8" height="28" fill="#f59e0b" opacity="0.15"/>
    <rect x="14" y="8" width="8" height="28" fill="#f59e0b" opacity="0.15"/>
    <line x1="-22" y1="16" x2="-14" y2="16" stroke="#f59e0b" stroke-width="1"/>
    <line x1="-22" y1="24" x2="-14" y2="24" stroke="#f59e0b" stroke-width="1"/>
    <line x1="-22" y1="32" x2="-14" y2="32" stroke="#f59e0b" stroke-width="1"/>
    <line x1="14" y1="16" x2="22" y2="16" stroke="#f59e0b" stroke-width="1"/>
    <line x1="14" y1="24" x2="22" y2="24" stroke="#f59e0b" stroke-width="1"/>
    <line x1="14" y1="32" x2="22" y2="32" stroke="#f59e0b" stroke-width="1"/>
    <text x="0" y="56" fill="#f59e0b" font-size="9.5" font-weight="700" text-anchor="middle">KEYFRAME SELECT</text>
    <text x="0" y="68" fill="#9ca3af" font-size="8" text-anchor="middle">Scene-change · SSIM</text>
    <text x="0" y="79" fill="#76b900" font-size="7.5" text-anchor="middle">NVIDIA DALI</text>
  </g>

  <!-- Arrow 2→3 -->
  <line x1="393" y1="183" x2="418" y2="183" stroke="#f59e0b" stroke-width="1.5" marker-end="url(#arrowAmber)"/>

  <!-- ── Stage 3: AI Inference (split: Visual + Audio) ─────────────────── -->
  <g transform="translate(475,118)">
    <rect x="-58" y="0" width="116" height="130" rx="10" fill="#1e1e3a" stroke="#f59e0b" stroke-width="1.5"/>
    <!-- NVIDIA badge -->
    <rect x="32" y="-8" width="22" height="14" rx="3" fill="#76b900"/>
    <text x="43" y="1" fill="white" font-size="7" font-weight="900" text-anchor="middle">NVIDIA</text>

    <!-- Visual sub-box -->
    <rect x="-50" y="8" width="100" height="50" rx="6" fill="#2a1f00" stroke="#f59e0b" stroke-width="1" stroke-dasharray="3,2"/>
    <text x="0" y="20" fill="#fbbf24" font-size="7.5" font-weight="700" text-anchor="middle">VISUAL TRACK</text>
    <text x="0" y="31" fill="#9ca3af" font-size="7" text-anchor="middle">CLIP ViT-L/14 → 512-dim</text>
    <text x="0" y="41" fill="#9ca3af" font-size="7" text-anchor="middle">BLIP-2 scene caption</text>
    <text x="0" y="52" fill="#6b7280" font-size="6.5" text-anchor="middle">TensorRT INT8 optimised</text>

    <!-- Audio sub-box -->
    <rect x="-50" y="66" width="100" height="38" rx="6" fill="#001421" stroke="#38bdf8" stroke-width="1" stroke-dasharray="3,2"/>
    <text x="0" y="78" fill="#38bdf8" font-size="7.5" font-weight="700" text-anchor="middle">AUDIO TRACK</text>
    <text x="0" y="89" fill="#9ca3af" font-size="7" text-anchor="middle">Riva ASR NIM</text>
    <text x="0" y="99" fill="#76b900" font-size="6.5" text-anchor="middle">Transcript + diarization</text>

    <text x="0" y="119" fill="#f59e0b" font-size="9" font-weight="700" text-anchor="middle">AI INFERENCE</text>
    <text x="0" y="129" fill="#9ca3af" font-size="7" text-anchor="middle">Parallel visual + audio</text>
  </g>

  <!-- Arrow 3→4 -->
  <line x1="536" y1="183" x2="561" y2="183" stroke="#f59e0b" stroke-width="1.5" marker-end="url(#arrowAmber)"/>

  <!-- ── Stage 4: INFINIA Knowledge Write ──────────────────────────────── -->
  <g transform="translate(615,140)">
    <rect x="-55" y="0" width="110" height="86" rx="10" fill="#1e1e3a" stroke="#f59e0b" stroke-width="1.5"/>
    <!-- Database cylinder icon -->
    <ellipse cx="0" cy="17" rx="22" ry="7" fill="#f59e0b22" stroke="#f59e0b" stroke-width="1.5"/>
    <line x1="-22" y1="17" x2="-22" y2="35" stroke="#f59e0b" stroke-width="1.5"/>
    <line x1="22" y1="17" x2="22" y2="35" stroke="#f59e0b" stroke-width="1.5"/>
    <ellipse cx="0" cy="35" rx="22" ry="7" fill="#f59e0b22" stroke="#f59e0b" stroke-width="1.5"/>
    <text x="0" y="56" fill="#f59e0b" font-size="9.5" font-weight="700" text-anchor="middle">WRITE TO INFINIA</text>
    <text x="0" y="67" fill="#9ca3af" font-size="7.5" text-anchor="middle">JSON sidecar + S3 headers</text>
    <text x="0" y="78" fill="#4ade80" font-size="7.5" text-anchor="middle">derived/embeddings/*.json</text>
  </g>

  <!-- ── INFINIA Arrow (down from stage 4 into INFINIA layer) ──────────── -->
  <line x1="615" y1="230" x2="615" y2="310" stroke="#f59e0b" stroke-width="2" stroke-dasharray="4,3" marker-end="url(#arrowAmber)"/>

  <!-- ══════════════════════════════════════════════════════════════════════
       DDN INFINIA INTELLIGENCE OBJECT LAYER  (horizontal center band)
       ══════════════════════════════════════════════════════════════════════ -->

  <!-- Main INFINIA band -->
  <rect x="22" y="315" width="760" height="160" rx="12" fill="#0d1a0d" stroke="#4ade80" stroke-width="2"/>
  <rect x="22" y="315" width="760" height="160" rx="12" fill="url(#infiniaGrad)" opacity="0.6"/>

  <!-- INFINIA header -->
  <text x="400" y="342" fill="#4ade80" font-size="13" font-weight="700" text-anchor="middle" letter-spacing="1">DDN INFINIA — Intelligence Object Layer</text>
  <text x="400" y="357" fill="#6b7280" font-size="9" text-anchor="middle">S3-compatible · Flat namespace · Unlimited object metadata · Wire-speed retrieval · No separate vector DB</text>

  <!-- INFINIA storage buckets -->
  <!-- raw/ -->
  <rect x="38" y="365" width="160" height="96" rx="8" fill="#1a1a00" stroke="#f59e0b" stroke-width="1.2"/>
  <text x="118" y="382" fill="#f59e0b" font-size="10" font-weight="700" font-family="monospace" text-anchor="middle">raw/</text>
  <text x="118" y="395" fill="#9ca3af" font-size="8" text-anchor="middle">Original MP4 + S3 headers</text>
  <text x="118" y="408" fill="#6b7280" font-size="7.5" text-anchor="middle">x-amz-meta-status: ingested</text>
  <text x="118" y="420" fill="#6b7280" font-size="7.5" text-anchor="middle">x-amz-meta-source: upload</text>
  <text x="118" y="432" fill="#6b7280" font-size="7.5" text-anchor="middle">x-amz-meta-duration-sec: N</text>
  <text x="118" y="450" fill="#fbbf24" font-size="7.5" font-weight="600" text-anchor="middle">Wire-speed ingest</text>

  <!-- chunks/ -->
  <rect x="210" y="365" width="160" height="96" rx="8" fill="#1a0d00" stroke="#f97316" stroke-width="1.2"/>
  <text x="290" y="382" fill="#f97316" font-size="10" font-weight="700" font-family="monospace" text-anchor="middle">chunks/</text>
  <text x="290" y="395" fill="#9ca3af" font-size="8" text-anchor="middle">GOP-aligned segments</text>
  <text x="290" y="408" fill="#6b7280" font-size="7.5" text-anchor="middle">x-amz-meta-parent-asset: id</text>
  <text x="290" y="420" fill="#6b7280" font-size="7.5" text-anchor="middle">x-amz-meta-chunk-index: N</text>
  <text x="290" y="432" fill="#6b7280" font-size="7.5" text-anchor="middle">x-amz-meta-duration-sec: 12s</text>
  <text x="290" y="450" fill="#fb923c" font-size="7.5" font-weight="600" text-anchor="middle">Parent-asset linked</text>

  <!-- keyframes/ -->
  <rect x="382" y="365" width="160" height="96" rx="8" fill="#001a0d" stroke="#4ade80" stroke-width="1.2"/>
  <text x="462" y="382" fill="#4ade80" font-size="10" font-weight="700" font-family="monospace" text-anchor="middle">keyframes/</text>
  <text x="462" y="395" fill="#9ca3af" font-size="8" text-anchor="middle">JPEG frames · SSIM selected</text>
  <text x="462" y="408" fill="#6b7280" font-size="7.5" text-anchor="middle">x-amz-meta-timestamp-ms: N</text>
  <text x="462" y="420" fill="#6b7280" font-size="7.5" text-anchor="middle">x-amz-meta-scene-score: 0.87</text>
  <text x="462" y="432" fill="#6b7280" font-size="7.5" text-anchor="middle">x-amz-meta-chunk-ref: N</text>
  <text x="462" y="450" fill="#34d399" font-size="7.5" font-weight="600" text-anchor="middle">Temporal pointers</text>

  <!-- derived/embeddings/ -->
  <rect x="554" y="365" width="218" height="96" rx="8" fill="#00001a" stroke="#60a5fa" stroke-width="1.5"/>
  <text x="663" y="382" fill="#60a5fa" font-size="10" font-weight="700" font-family="monospace" text-anchor="middle">derived/embeddings/</text>
  <text x="663" y="395" fill="#9ca3af" font-size="8" text-anchor="middle">{asset_id}.json — JSON sidecar</text>
  <text x="663" y="407" fill="#6b7280" font-size="7" text-anchor="middle">→ CLIP 512-dim float32 vector</text>
  <text x="663" y="418" fill="#6b7280" font-size="7" text-anchor="middle">→ BLIP-2 scene caption text</text>
  <text x="663" y="429" fill="#6b7280" font-size="7" text-anchor="middle">→ object tags array</text>
  <text x="663" y="440" fill="#6b7280" font-size="7" text-anchor="middle">→ Riva ASR transcript</text>
  <text x="663" y="452" fill="#93c5fd" font-size="7.5" font-weight="600" text-anchor="middle">INFINIA replaces vector DB storage</text>

  <!-- INFINIA footnote -->
  <text x="400" y="490" fill="#4b5563" font-size="8" text-anchor="middle">S3 headers = graph edge index · JSON sidecar = semantic node · FAISS reads from INFINIA at query time (no sync, no service)</text>

  <!-- ══════════════════════════════════════════════════════════════════════
       RETRIEVAL PIPELINE  (right side, top-to-bottom flow)
       ══════════════════════════════════════════════════════════════════════ -->

  <!-- Read arrow from INFINIA up to retrieval -->
  <line x1="1100" y1="315" x2="1100" y2="265" stroke="#60a5fa" stroke-width="2" stroke-dasharray="4,3" marker-end="url(#arrowBlue)"/>
  <text x="1110" y="295" fill="#60a5fa" font-size="8">INFINIA read</text>

  <!-- User query area -->
  <rect x="820" y="140" width="130" height="100" rx="10" fill="#1e1e3a" stroke="#60a5fa" stroke-width="1.5"/>
  <!-- User icon -->
  <circle cx="885" cy="162" r="12" fill="none" stroke="#60a5fa" stroke-width="1.8"/>
  <path d="M862,188 Q862,176 885,176 Q908,176 908,188" fill="none" stroke="#60a5fa" stroke-width="1.8"/>
  <text x="885" y="204" fill="#60a5fa" font-size="9.5" font-weight="700" text-anchor="middle">USER QUERY</text>
  <text x="885" y="216" fill="#9ca3af" font-size="7.5" text-anchor="middle">"wet road at night"</text>
  <text x="885" y="227" fill="#6b7280" font-size="7" text-anchor="middle">Archive / anomaly search</text>

  <!-- Arrow user → CLIP -->
  <line x1="953" y1="190" x2="978" y2="190" stroke="#60a5fa" stroke-width="1.5" marker-end="url(#arrowBlue)"/>

  <!-- ── R-1: CLIP Text Encoder ────────────────────────────────────────── -->
  <g transform="translate(1040,140)">
    <rect x="-58" y="0" width="116" height="100" rx="10" fill="#1e1e3a" stroke="#60a5fa" stroke-width="1.5"/>
    <!-- Type icon -->
    <text x="-30" y="32" fill="#60a5fa" font-size="22" font-weight="900">T</text>
    <text x="2" y="32" fill="#60a5fa" font-size="22" font-weight="900" opacity="0.4">x</text>
    <text x="0" y="55" fill="#60a5fa" font-size="9.5" font-weight="700" text-anchor="middle">CLIP TEXT ENCODE</text>
    <text x="0" y="66" fill="#9ca3af" font-size="7.5" text-anchor="middle">ViT-L/14 text encoder</text>
    <text x="0" y="77" fill="#9ca3af" font-size="7.5" text-anchor="middle">→ 512-dim vector</text>
    <text x="0" y="88" fill="#6b7280" font-size="7" text-anchor="middle">Same space as ingestion</text>
    <text x="0" y="99" fill="#9ca3af" font-size="7" text-anchor="middle">OpenCLIP · TensorRT</text>
  </g>

  <!-- Arrow R1 → R2 -->
  <line x1="1101" y1="190" x2="1126" y2="190" stroke="#60a5fa" stroke-width="1.5" marker-end="url(#arrowBlue)"/>

  <!-- ── R-2: INFINIA Metadata Pre-filter ──────────────────────────────── -->
  <g transform="translate(1195,140)">
    <rect x="-60" y="0" width="120" height="100" rx="10" fill="#1e1e3a" stroke="#4ade80" stroke-width="1.5"/>
    <!-- Filter icon -->
    <polygon points="-28,10 28,10 10,30 10,46 -10,46 -10,30" fill="none" stroke="#4ade80" stroke-width="1.8"/>
    <text x="0" y="58" fill="#4ade80" font-size="9.5" font-weight="700" text-anchor="middle">METADATA PRE-FILTER</text>
    <text x="0" y="69" fill="#9ca3af" font-size="7.5" text-anchor="middle">S3 header sweep</text>
    <text x="0" y="80" fill="#6b7280" font-size="7" text-anchor="middle">status=indexed + tags match</text>
    <text x="0" y="91" fill="#34d399" font-size="7.5" text-anchor="middle">Zero GPU · Pure INFINIA</text>
    <text x="0" y="100" fill="#6b7280" font-size="7" text-anchor="middle">10,000 → ~94 candidates</text>
  </g>

  <!-- Arrow R2 → R3 -->
  <line x1="1258" y1="190" x2="1283" y2="190" stroke="#60a5fa" stroke-width="1.5" marker-end="url(#arrowBlue)"/>

  <!-- ── R-3: FAISS ANN Search ─────────────────────────────────────────── -->
  <g transform="translate(1355,140)">
    <rect x="-58" y="0" width="116" height="100" rx="10" fill="#1e1e3a" stroke="#60a5fa" stroke-width="1.5"/>
    <!-- Search icon -->
    <circle cx="-8" cy="22" r="14" fill="none" stroke="#60a5fa" stroke-width="1.8"/>
    <line x1="3" y1="33" x2="18" y2="48" stroke="#60a5fa" stroke-width="2"/>
    <text x="0" y="62" fill="#60a5fa" font-size="9.5" font-weight="700" text-anchor="middle">FAISS ANN SEARCH</text>
    <text x="0" y="73" fill="#9ca3af" font-size="7.5" text-anchor="middle">In-process · no service</text>
    <text x="0" y="84" fill="#9ca3af" font-size="7.5" text-anchor="middle">Cosine sim over candidates</text>
    <text x="0" y="95" fill="#6b7280" font-size="7" text-anchor="middle">Meta AI FAISS (library)</text>
  </g>

  <!-- Arrow R3 → R4 -->
  <line x1="1416" y1="190" x2="1441" y2="190" stroke="#60a5fa" stroke-width="1.5" marker-end="url(#arrowBlue)"/>

  <!-- ── R-4: Rerank + Results ─────────────────────────────────────────── -->
  <g transform="translate(1506,140)">
    <rect x="-58" y="0" width="116" height="100" rx="10" fill="#1e1e3a" stroke="#60a5fa" stroke-width="1.5"/>
    <!-- Results grid icon -->
    <rect x="-24" y="8" width="20" height="12" rx="2" fill="#60a5fa22" stroke="#60a5fa" stroke-width="1"/>
    <rect x="2" y="8" width="20" height="12" rx="2" fill="#60a5fa22" stroke="#60a5fa" stroke-width="1"/>
    <rect x="-24" y="24" width="20" height="12" rx="2" fill="#60a5fa22" stroke="#60a5fa" stroke-width="1"/>
    <rect x="2" y="24" width="20" height="12" rx="2" fill="#60a5fa22" stroke="#60a5fa" stroke-width="1"/>
    <text x="0" y="55" fill="#60a5fa" font-size="9.5" font-weight="700" text-anchor="middle">RERANK + RESULTS</text>
    <text x="0" y="66" fill="#9ca3af" font-size="7.5" text-anchor="middle">CLIP + SBERT blend</text>
    <text x="0" y="77" fill="#9ca3af" font-size="7.5" text-anchor="middle">Pre-signed S3 URLs</text>
    <text x="0" y="88" fill="#9ca3af" font-size="7" text-anchor="middle">BLIP captions · timestamps</text>
    <text x="0" y="99" fill="#fbbf24" font-size="7.5" text-anchor="middle">Sub-2s end-to-end</text>
  </g>

  <!-- ══════════════════════════════════════════════════════════════════════
       CONNECTORS  — Ingestion → INFINIA write arrows (vertical)
       ══════════════════════════════════════════════════════════════════════ -->

  <!-- Stage 0 → raw/ (write) -->
  <line x1="55" y1="232" x2="55" y2="315" stroke="#f59e0b" stroke-width="1.2" stroke-dasharray="4,3" opacity="0.6"/>
  <!-- Stage 1 → chunks/ (write) -->
  <line x1="195" y1="232" x2="195" y2="315" stroke="#f97316" stroke-width="1.2" stroke-dasharray="4,3" opacity="0.6"/>
  <!-- Stage 2 → keyframes/ (write) -->
  <line x1="335" y1="232" x2="335" y2="315" stroke="#4ade80" stroke-width="1.2" stroke-dasharray="4,3" opacity="0.6"/>
  <!-- Stage 3 (AI) + Stage 4 (write) → derived/ (write) -->
  <line x1="615" y1="232" x2="618" y2="315" stroke="#60a5fa" stroke-width="1.5" stroke-dasharray="4,3" opacity="0.7"/>

  <!-- INFINIA → Retrieval read arrows (vertical) -->
  <line x1="1040" y1="315" x2="1040" y2="244" stroke="#4ade80" stroke-width="1.5" stroke-dasharray="4,3" opacity="0.7" marker-end="url(#arrowGreen)"/>
  <line x1="1195" y1="315" x2="1195" y2="244" stroke="#4ade80" stroke-width="1.5" stroke-dasharray="4,3" opacity="0.7" marker-end="url(#arrowGreen)"/>
  <line x1="1355" y1="315" x2="1355" y2="244" stroke="#4ade80" stroke-width="1.5" stroke-dasharray="4,3" opacity="0.7" marker-end="url(#arrowGreen)"/>

  <!-- ══════════════════════════════════════════════════════════════════════
       STORAGE TOPOLOGY DIAGRAM  (bottom section)
       ══════════════════════════════════════════════════════════════════════ -->

  <!-- INFINIA STORAGE replica group box -->
  <rect x="22" y="510" width="760" height="130" rx="10" fill="#0d1a0d" stroke="#4ade80" stroke-width="1.5" stroke-dasharray="4,2"/>
  <text x="40" y="530" fill="#4ade80" font-size="10" font-weight="700">DDN INFINIA Storage Topology</text>
  <text x="400" y="530" fill="#6b7280" font-size="8" text-anchor="middle">All data and intelligence co-located · No object leaves INFINIA for inference</text>

  <!-- Replica nodes -->
  <g transform="translate(70,545)">
    <rect x="-40" y="0" width="80" height="80" rx="8" fill="#1a1a2e" stroke="#4ade80" stroke-width="1"/>
    <ellipse cx="0" cy="22" rx="18" ry="6" fill="none" stroke="#4ade80" stroke-width="1.2"/>
    <line x1="-18" y1="22" x2="-18" y2="42" stroke="#4ade80" stroke-width="1.2"/>
    <line x1="18" y1="22" x2="18" y2="42" stroke="#4ade80" stroke-width="1.2"/>
    <ellipse cx="0" cy="42" rx="18" ry="6" fill="none" stroke="#4ade80" stroke-width="1.2"/>
    <text x="0" y="58" fill="#4ade80" font-size="8" font-weight="700" text-anchor="middle">Node 1</text>
    <text x="0" y="69" fill="#6b7280" font-size="6.5" text-anchor="middle">raw/ · chunks/</text>
    <text x="0" y="78" fill="#6b7280" font-size="6.5" text-anchor="middle">keyframes/</text>
  </g>

  <g transform="translate(200,545)">
    <rect x="-40" y="0" width="80" height="80" rx="8" fill="#1a1a2e" stroke="#4ade80" stroke-width="1"/>
    <ellipse cx="0" cy="22" rx="18" ry="6" fill="none" stroke="#4ade80" stroke-width="1.2"/>
    <line x1="-18" y1="22" x2="-18" y2="42" stroke="#4ade80" stroke-width="1.2"/>
    <line x1="18" y1="22" x2="18" y2="42" stroke="#4ade80" stroke-width="1.2"/>
    <ellipse cx="0" cy="42" rx="18" ry="6" fill="none" stroke="#4ade80" stroke-width="1.2"/>
    <text x="0" y="58" fill="#4ade80" font-size="8" font-weight="700" text-anchor="middle">Node 2</text>
    <text x="0" y="69" fill="#6b7280" font-size="6.5" text-anchor="middle">derived/</text>
    <text x="0" y="78" fill="#6b7280" font-size="6.5" text-anchor="middle">embeddings/*.json</text>
  </g>

  <g transform="translate(330,545)">
    <rect x="-40" y="0" width="80" height="80" rx="8" fill="#1a1a2e" stroke="#4ade80" stroke-width="1"/>
    <ellipse cx="0" cy="22" rx="18" ry="6" fill="none" stroke="#4ade80" stroke-width="1.2"/>
    <line x1="-18" y1="22" x2="-18" y2="42" stroke="#4ade80" stroke-width="1.2"/>
    <line x1="18" y1="22" x2="18" y2="42" stroke="#4ade80" stroke-width="1.2"/>
    <ellipse cx="0" cy="42" rx="18" ry="6" fill="none" stroke="#4ade80" stroke-width="1.2"/>
    <text x="0" y="58" fill="#4ade80" font-size="8" font-weight="700" text-anchor="middle">Node N</text>
    <text x="0" y="69" fill="#6b7280" font-size="6.5" text-anchor="middle">…scales linearly</text>
    <text x="0" y="78" fill="#6b7280" font-size="6.5" text-anchor="middle">no rebalancing</text>
  </g>

  <!-- INFINIA replica lines -->
  <line x1="115" y1="585" x2="160" y2="585" stroke="#4ade80" stroke-width="1" stroke-dasharray="3,2" opacity="0.5"/>
  <line x1="245" y1="585" x2="290" y2="585" stroke="#4ade80" stroke-width="1" stroke-dasharray="3,2" opacity="0.5"/>
  <text x="420" y="590" fill="#6b7280" font-size="8">INFINIA flat namespace: all objects queryable immediately after write. No re-indexing required.</text>
  <text x="420" y="605" fill="#6b7280" font-size="8">S3 API: any FAISS-capable compute can read derived/embeddings/ directly at wire speed.</text>
  <text x="420" y="620" fill="#fbbf24" font-size="8" font-weight="600">100 TB of new video added → immediately searchable. No ops. No pipeline re-run.</text>

  <!-- ══════════════════════════════════════════════════════════════════════
       NVIDIA LIBRARY STACK (bottom right)
       ══════════════════════════════════════════════════════════════════════ -->

  <rect x="800" y="510" width="740" height="130" rx="10" fill="#0d100d" stroke="#76b900" stroke-width="1.5"/>
  <!-- NVIDIA logo area -->
  <rect x="816" y="522" width="46" height="20" rx="3" fill="#76b900"/>
  <text x="839" y="536" fill="white" font-size="9" font-weight="900" text-anchor="middle">NVIDIA</text>
  <text x="880" y="536" fill="#76b900" font-size="11" font-weight="700"> Component Stack</text>

  <!-- NVIDIA components (genuinely NVIDIA) -->
  <text x="820" y="555" fill="#76b900" font-size="10" font-weight="700">✓ Genuinely NVIDIA</text>
  <rect x="820" y="560" width="186" height="17" rx="4" fill="#76b90015" stroke="#76b90040"/>
  <text x="828" y="572" fill="#76b900" font-size="8" font-weight="700">NVIDIA DALI</text>
  <text x="920" y="572" fill="#6b7280" font-size="7.5">GPU video decode · frame extraction</text>

  <rect x="820" y="580" width="186" height="17" rx="4" fill="#76b90015" stroke="#76b90040"/>
  <text x="828" y="592" fill="#76b900" font-size="8" font-weight="700">NVIDIA TensorRT</text>
  <text x="920" y="592" fill="#6b7280" font-size="7.5">INT8/FP16 inference optimization</text>

  <rect x="820" y="600" width="186" height="17" rx="4" fill="#76b90015" stroke="#76b90040"/>
  <text x="828" y="612" fill="#76b900" font-size="8" font-weight="700">NVIDIA Riva ASR NIM</text>
  <text x="920" y="612" fill="#6b7280" font-size="7.5">Speech-to-text · diarization</text>

  <rect x="820" y="620" width="186" height="17" rx="4" fill="#76b90015" stroke="#76b90040"/>
  <text x="828" y="632" fill="#76b900" font-size="8" font-weight="700">NeMo Retriever NIM</text>
  <text x="920" y="632" fill="#6b7280" font-size="7.5">Reranking (optional upgrade)</text>

  <!-- Non-NVIDIA components -->
  <text x="1020" y="555" fill="#9ca3af" font-size="10" font-weight="700">↗ Open Source / Third-party</text>
  <rect x="1020" y="560" width="200" height="17" rx="4" fill="#1a1a2e" stroke="#374151"/>
  <text x="1028" y="572" fill="#9ca3af" font-size="8" font-weight="700">CLIP ViT-L/14</text>
  <text x="1107" y="572" fill="#6b7280" font-size="7.5">OpenAI · OpenCLIP implementation</text>

  <rect x="1020" y="580" width="200" height="17" rx="4" fill="#1a1a2e" stroke="#374151"/>
  <text x="1028" y="592" fill="#9ca3af" font-size="8" font-weight="700">BLIP-2</text>
  <text x="1068" y="592" fill="#6b7280" font-size="7.5">Salesforce · dense captioning</text>

  <rect x="1020" y="600" width="200" height="17" rx="4" fill="#1a1a2e" stroke="#374151"/>
  <text x="1028" y="612" fill="#9ca3af" font-size="8" font-weight="700">FAISS (Meta AI)</text>
  <text x="1107" y="612" fill="#6b7280" font-size="7.5">ANN library · in-process · no service</text>

  <rect x="1020" y="620" width="200" height="17" rx="4" fill="#1a1a2e" stroke="#374151"/>
  <text x="1028" y="632" fill="#9ca3af" font-size="8" font-weight="700">FFmpeg · PyAV</text>
  <text x="1107" y="632" fill="#6b7280" font-size="7.5">Video demux · chunking</text>


  <!-- ══════════════════════════════════════════════════════════════════════
       ARROW MARKERS
       ══════════════════════════════════════════════════════════════════════ -->
  <defs>
    <marker id="arrowAmber" markerWidth="8" markerHeight="8" refX="6" refY="3" orient="auto">
      <path d="M0,0 L0,6 L8,3 z" fill="#f59e0b"/>
    </marker>
    <marker id="arrowBlue" markerWidth="8" markerHeight="8" refX="6" refY="3" orient="auto">
      <path d="M0,0 L0,6 L8,3 z" fill="#60a5fa"/>
    </marker>
    <marker id="arrowGreen" markerWidth="8" markerHeight="8" refX="6" refY="3" orient="auto">
      <path d="M0,0 L0,6 L8,3 z" fill="#4ade80"/>
    </marker>
    <linearGradient id="infiniaGrad" x1="0" y1="0" x2="1" y2="0">
      <stop offset="0%" stop-color="#f59e0b" stop-opacity="0.05"/>
      <stop offset="50%" stop-color="#4ade80" stop-opacity="0.08"/>
      <stop offset="100%" stop-color="#60a5fa" stop-opacity="0.05"/>
    </linearGradient>
  </defs>

</svg>
